<svg width="101" height="100" viewBox="0 0 101 100" fill="none" xmlns="http://www.w3.org/2000/svg">
<g clip-path="url(#clip0_847_4384)">
<path d="M50.5 25C50.5 29.5833 46.7708 33.3333 42.1667 33.3333H21.3333H8.83333C4.23083 33.3333 0.5 37.0833 0.5 41.6667V75V87.5C0.5 92.0833 4.23096 95.8333 8.83333 95.8333H92.1667C96.7708 95.8333 100.5 92.0833 100.5 87.5V75V33.3333C100.5 28.75 96.7708 25 92.1667 25H50.5Z" fill="#27AE60"/>
<path d="M8.83333 8.33337C4.23083 8.33337 0.5 12.0642 0.5 16.6667V37.5H42.1667V41.6667H100.5V20.8334C100.5 16.2309 96.7708 12.5 92.1667 12.5H49.3292C47.8875 10.013 45.25 8.33337 42.1667 8.33337H8.83333Z" fill="#27AE60"/>
<path d="M50.5 20.8334C50.5 25.4167 46.7708 29.1667 42.1667 29.1667H21.3333H8.83333C4.23083 29.1667 0.5 32.9167 0.5 37.5V70.8334V83.3334C0.5 87.9167 4.23096 91.6667 8.83333 91.6667H92.1667C96.7708 91.6667 100.5 87.9167 100.5 83.3334V70.8334V29.1667C100.5 24.5834 96.7708 20.8334 92.1667 20.8334H50.5Z" fill="#2ECC71"/>
</g>
<defs>
<clipPath id="clip0_847_4384">
<rect width="100" height="100" fill="white" transform="translate(0.5)"/>
</clipPath>
</defs>
</svg>
