<svg width="93" height="78" viewBox="0 0 93 78" fill="none" xmlns="http://www.w3.org/2000/svg">
<path d="M75.0469 10.3125H54.7344L43.375 1.21875C42.9633 0.88681 42.4508 0.704956 41.9219 0.703125H8.875C6.62895 0.703125 4.47489 1.59537 2.88669 3.18356C1.29849 4.77176 0.40625 6.92582 0.40625 9.17187V74.9375C0.402938 75.5181 0.615263 76.0793 1.00208 76.5123C1.38891 76.9453 1.92268 77.2193 2.5 77.2812H2.75C3.28736 77.2792 3.80793 77.0938 4.2256 76.7557C4.64326 76.4176 4.933 75.947 5.04687 75.4219L14.625 30.1094C14.8165 29.2655 15.2952 28.5143 15.9792 27.9842C16.6632 27.4541 17.51 27.178 18.375 27.2031H81.1562C81.7778 27.2031 82.374 26.9562 82.8135 26.5167C83.2531 26.0771 83.5 25.481 83.5 24.8594V18.7812C83.5 16.5379 82.6099 14.3862 81.0251 12.7985C79.4403 11.2107 77.2902 10.3166 75.0469 10.3125Z" fill="#846ADC"/>
<path d="M90.7656 25.7188C89.9726 24.718 88.9631 23.9098 87.8129 23.3551C86.6628 22.8003 85.4019 22.5133 84.125 22.5156H18.375C16.4569 22.5111 14.5946 23.1602 13.0949 24.356C11.5952 25.5518 10.5477 27.2229 10.125 29.0938L0.53125 74.4063C0.449633 74.7459 0.444959 75.0995 0.517569 75.4411C0.590178 75.7828 0.738236 76.1039 0.950914 76.381C1.16359 76.6581 1.43551 76.8841 1.74679 77.0426C2.05806 77.201 2.40082 77.2879 2.75 77.2969H76.3125C78.232 77.2978 80.0946 76.6454 81.594 75.447C83.0934 74.2486 84.1403 72.5756 84.5625 70.7031L92.375 32.9219C92.6712 31.6779 92.6803 30.3827 92.4014 29.1346C92.1226 27.8866 91.5632 26.7184 90.7656 25.7188Z" fill="#B3A9EB"/>
</svg>
