<svg width="101" height="100" viewBox="0 0 101 100" fill="none" xmlns="http://www.w3.org/2000/svg">
<g clip-path="url(#clip0_847_4390)">
<path d="M93.9066 13.1868H87.3133L46.1045 19.7801V32.9668H100.5V19.7801C100.5 16.154 97.533 13.1868 93.9066 13.1868Z" fill="#FE5F1A"/>
<path d="M93.9066 19.7803H46.1045V13.1868H87.3133C90.9397 13.1868 93.9066 16.154 93.9066 19.7803Z" fill="#FE834D"/>
<path d="M100.5 32.967V86.8131H87.3133V26.3737H93.9066C97.533 26.3737 100.5 29.3406 100.5 32.967Z" fill="#FEA680"/>
<path d="M87.3133 86.8132H100.5C100.5 90.4396 97.533 93.4066 93.9066 93.4066H87.3133V86.8132Z" fill="#FE834D"/>
<path d="M0.5 86.8133L47.2033 69.2308L93.9066 86.8133C93.9066 90.4396 90.9397 93.4066 87.3133 93.4066H7.09336C3.46699 93.4066 0.5 90.4396 0.5 86.8133Z" fill="#FEA680"/>
<path d="M93.9066 32.967V86.8131H0.5V13.1867C0.5 9.56038 3.46699 6.59338 7.09336 6.59338H43.9066C47.533 6.59338 50.5 9.56038 50.5 13.1867V26.3735H87.3133C90.9397 26.3737 93.9066 29.3407 93.9066 32.967Z" fill="#FFC1A6"/>
</g>
<defs>
<clipPath id="clip0_847_4390">
<rect width="100" height="100" fill="white" transform="translate(0.5)"/>
</clipPath>
</defs>
</svg>
