<svg width="101" height="100" viewBox="0 0 101 100" fill="none" xmlns="http://www.w3.org/2000/svg">
<g clip-path="url(#clip0_847_4399)">
<path d="M94.4639 16.8008H88.4277L94.4639 31.8914H100.5V22.8371C100.5 19.5172 97.7838 16.8008 94.4639 16.8008Z" fill="#FF4D6B"/>
<path d="M88.4275 16.8008H38.4275V31.8914H94.4637V22.8371C94.4639 19.5172 91.7475 16.8008 88.4275 16.8008Z" fill="#FF738D"/>
<path d="M94.4639 77.1628L88.4277 92.2535H94.4639C97.7838 92.2535 100.5 89.5373 100.5 86.2173V83.1992L94.4639 77.1628Z" fill="#FF738D"/>
<path d="M94.4639 86.2174V77.1631L0.5 83.1992V86.2174C0.5 89.5373 3.21621 92.2535 6.53613 92.2535H88.4275C91.7475 92.2535 94.4639 89.5373 94.4639 86.2174Z" fill="#FF91A5"/>
<path d="M94.4639 25.8551H88.4277L94.4639 83.1992H100.5V31.8914C100.5 28.5715 97.7838 25.8551 94.4639 25.8551Z" fill="#FF91A5"/>
<path d="M94.4639 31.8914C94.4639 28.5715 91.7477 25.8553 88.4277 25.8553H56.5361L47.8119 12.769C45.9705 10.0069 41.7473 7.7467 38.4273 7.7467H6.53613C3.21621 7.74651 0.5 10.4627 0.5 13.7826V83.1992H94.4639V31.8914Z" fill="#FFB3C1"/>
</g>
<defs>
<clipPath id="clip0_847_4399">
<rect width="100" height="100" fill="white" transform="translate(0.5)"/>
</clipPath>
</defs>
</svg>
