<svg width="20" height="21" viewBox="0 0 20 21" fill="none" xmlns="http://www.w3.org/2000/svg">
<path d="M11.028 0.0771484C12.153 0.0801484 12.724 0.0861484 13.217 0.100148L13.411 0.107148C13.635 0.115148 13.856 0.125148 14.123 0.137148C15.187 0.187148 15.913 0.355149 16.55 0.602149C17.21 0.856149 17.766 1.20015 18.322 1.75515C18.8307 2.25488 19.2242 2.85962 19.475 3.52715C19.722 4.16415 19.89 4.89015 19.94 5.95515C19.952 6.22115 19.962 6.44215 19.97 6.66715L19.976 6.86115C19.991 7.35315 19.997 7.92415 19.999 9.04915L20 9.79515V11.1051C20.0025 11.8346 19.9948 12.564 19.977 13.2931L19.971 13.4871C19.963 13.7121 19.953 13.9331 19.941 14.1991C19.891 15.2641 19.721 15.9891 19.475 16.6271C19.2242 17.2947 18.8307 17.8994 18.322 18.3991C17.8223 18.9078 17.2175 19.3013 16.55 19.5521C15.913 19.7991 15.187 19.9671 14.123 20.0171L13.411 20.0471L13.217 20.0531C12.724 20.0671 12.153 20.0741 11.028 20.0761L10.282 20.0771H8.97302C8.24328 20.0797 7.51354 20.0721 6.78402 20.0541L6.59002 20.0481C6.35263 20.0392 6.11529 20.0288 5.87802 20.0171C4.81402 19.9671 4.08802 19.7991 3.45002 19.5521C2.78285 19.3012 2.17846 18.9077 1.67902 18.3991C1.16996 17.8995 0.776128 17.2948 0.52502 16.6271C0.27802 15.9901 0.110019 15.2641 0.0600194 14.1991L0.0300195 13.4871L0.0250196 13.2931C0.00658562 12.564 -0.00174861 11.8346 1.94806e-05 11.1051V9.04915C-0.00274841 8.31975 0.0045857 7.59035 0.0220196 6.86115L0.0290195 6.66715C0.0370195 6.44215 0.0470195 6.22115 0.0590195 5.95515C0.109019 4.89015 0.277019 4.16515 0.524019 3.52715C0.775714 2.85935 1.17024 2.25458 1.68002 1.75515C2.17917 1.2467 2.78321 0.853222 3.45002 0.602149C4.08802 0.355149 4.81302 0.187148 5.87802 0.137148C6.14402 0.125148 6.36602 0.115148 6.59002 0.107148L6.78402 0.101148C7.51321 0.0833811 8.24261 0.0757137 8.97202 0.0781484L11.028 0.0771484ZM10 5.07715C8.67394 5.07715 7.40217 5.60393 6.46449 6.54161C5.5268 7.4793 5.00002 8.75107 5.00002 10.0771C5.00002 11.4032 5.5268 12.675 6.46449 13.6127C7.40217 14.5504 8.67394 15.0771 10 15.0771C11.3261 15.0771 12.5979 14.5504 13.5356 13.6127C14.4732 12.675 15 11.4032 15 10.0771C15 8.75107 14.4732 7.4793 13.5356 6.54161C12.5979 5.60393 11.3261 5.07715 10 5.07715ZM10 7.07715C10.394 7.07708 10.7841 7.15462 11.1481 7.30532C11.5121 7.45602 11.8429 7.67695 12.1215 7.95547C12.4001 8.234 12.6211 8.56468 12.772 8.92864C12.9228 9.29259 13.0005 9.68268 13.0005 10.0766C13.0006 10.4706 12.9231 10.8607 12.7723 11.2247C12.6216 11.5887 12.4007 11.9195 12.1222 12.1981C11.8437 12.4767 11.513 12.6978 11.149 12.8486C10.7851 12.9994 10.395 13.0771 10.001 13.0771C9.20537 13.0771 8.44231 12.7611 7.8797 12.1985C7.31709 11.6359 7.00102 10.8728 7.00102 10.0771C7.00102 9.2815 7.31709 8.51844 7.8797 7.95583C8.44231 7.39322 9.20537 7.07715 10.001 7.07715M15.251 3.57715C14.9195 3.57715 14.6016 3.70884 14.3671 3.94326C14.1327 4.17769 14.001 4.49563 14.001 4.82715C14.001 5.15867 14.1327 5.47661 14.3671 5.71103C14.6016 5.94545 14.9195 6.07715 15.251 6.07715C15.5825 6.07715 15.9005 5.94545 16.1349 5.71103C16.3693 5.47661 16.501 5.15867 16.501 4.82715C16.501 4.49563 16.3693 4.17769 16.1349 3.94326C15.9005 3.70884 15.5825 3.57715 15.251 3.57715Z" fill="white"/>
</svg>
