<svg width="20" height="21" viewBox="0 0 20 21" fill="none" xmlns="http://www.w3.org/2000/svg">
<path d="M17.0392 17.1205H14.0775V12.4796C14.0775 11.373 14.055 9.94881 12.5342 9.94881C10.99 9.94881 10.7542 11.153 10.7542 12.398V17.1205H7.7925V7.57715H10.6375V8.87798H10.6758C11.0733 8.12798 12.04 7.33632 13.4842 7.33632C16.485 7.33632 17.04 9.31132 17.04 11.8821L17.0392 17.1205ZM4.4475 6.27132C4.2215 6.27164 3.99766 6.22735 3.78883 6.14096C3.57999 6.05458 3.39027 5.92781 3.23054 5.76793C3.07081 5.60805 2.94423 5.4182 2.85805 5.20928C2.77187 5.00036 2.72778 4.77648 2.72833 4.55048C2.7285 4.2103 2.82954 3.8778 3.01867 3.59504C3.2078 3.31228 3.47654 3.09195 3.79089 2.96192C4.10524 2.83189 4.45109 2.798 4.78471 2.86453C5.11832 2.93106 5.42472 3.09502 5.66515 3.33568C5.90558 3.57634 6.06924 3.8829 6.13545 4.21658C6.20165 4.55026 6.16742 4.89607 6.03709 5.2103C5.90675 5.52453 5.68616 5.79305 5.40322 5.98191C5.12028 6.17076 4.78768 6.27148 4.4475 6.27132ZM5.9325 17.1205H2.9625V7.57715H5.9325V17.1205ZM18.5208 0.0771484H1.47583C0.66 0.0771484 0 0.722148 0 1.51798V18.6363C0 19.433 0.66 20.0771 1.47583 20.0771H18.5183C19.3333 20.0771 20 19.433 20 18.6363V1.51798C20 0.722148 19.3333 0.0771484 18.5183 0.0771484H18.5208Z" fill="white"/>
</svg>
