<svg width="217" height="18" viewBox="0 0 217 18" fill="none" xmlns="http://www.w3.org/2000/svg">
<path d="M17.9495 16.1972C17.8495 16.1972 17.8495 16.1972 17.7495 16.1972C17.4495 16.1972 17.1495 16.1972 16.9495 15.8972C16.7495 15.6972 16.7495 14.8972 16.7495 14.4972C16.7495 14.3972 16.7495 14.3972 16.7495 14.2972V4.5972C16.7495 4.3972 16.7495 4.19722 16.7495 3.89722C16.7495 3.49722 16.7495 3.09719 16.9495 2.99719C17.0495 2.89719 17.2495 2.79721 17.5495 2.79721C17.6495 2.79721 17.8495 2.79721 17.9495 2.79721C18.1495 2.79721 18.6495 2.69721 18.6495 2.29721C18.6495 2.19721 18.5495 1.99719 18.4495 1.99719C18.3495 1.89719 18.2495 1.89722 18.1495 1.89722C18.0495 1.89722 17.8495 1.89722 17.8495 1.89722H15.2495C14.9495 1.89722 14.6495 1.89721 14.5495 2.29721L9.84953 13.1972L5.64954 2.6972C5.54954 2.3972 5.44952 1.89722 4.94952 1.89722H2.24953C2.14953 1.89722 2.04952 1.89722 1.94952 1.89722C1.84952 1.89722 1.74954 1.89719 1.64954 1.99719C1.54954 2.09719 1.44952 2.19721 1.44952 2.29721C1.44952 2.69721 1.84954 2.79721 2.14954 2.79721C2.64954 2.79721 2.94954 2.79722 3.14954 2.89722C3.24954 2.99722 3.34953 3.09719 3.34953 3.49719C3.34953 3.59719 3.34953 3.79719 3.34953 3.99719L2.64954 14.3972C2.54954 15.5972 2.54953 15.9972 1.34953 16.0972C1.14953 16.0972 0.649536 16.0972 0.649536 16.4972C0.649536 16.5972 0.749533 16.7972 0.849533 16.7972C0.949533 16.8972 1.04954 16.8972 1.14954 16.8972C1.84954 16.8972 2.54953 16.7972 3.24953 16.7972C3.94953 16.7972 4.64953 16.8972 5.34953 16.8972C5.44953 16.8972 5.54953 16.8972 5.74953 16.8972C5.84953 16.8972 6.04953 16.6972 6.04953 16.4972C6.04953 16.0972 5.54953 16.0972 5.34953 16.0972H5.24953C3.94953 16.0972 3.74953 15.3972 3.74953 14.3972C3.74953 14.0972 3.74953 13.8972 3.74953 13.5972L4.44952 3.99719L9.04953 15.7972C9.04953 15.8972 9.14953 16.2972 9.54953 16.2972C9.84953 16.2972 9.94953 15.8972 10.0495 15.7972L15.2495 3.6972V14.1972C15.2495 14.2972 15.2495 14.3972 15.2495 14.4972C15.2495 14.9972 15.1495 15.4972 14.9495 15.7972C14.7495 15.9972 14.2495 16.0972 13.9495 16.0972C13.9495 16.0972 13.8495 16.0972 13.7495 16.0972C13.5495 16.0972 13.0495 16.0972 13.0495 16.4972C13.0495 16.8972 13.4495 16.8972 13.6495 16.8972C14.5495 16.8972 15.5495 16.7972 16.4495 16.7972C17.2495 16.7972 17.9495 16.8972 18.7495 16.8972C18.9495 16.8972 19.3495 16.8972 19.3495 16.4972C18.6495 16.2972 18.2495 16.1972 17.9495 16.1972Z" fill="#0067B1"/>
<path d="M29.7495 15.2972C29.5495 15.2972 29.4495 15.4972 29.2495 15.5972C29.0495 15.6972 28.9495 15.8972 28.6495 15.8972C28.3495 15.8972 28.1495 15.6972 28.0495 15.2972C27.9495 14.8972 27.9495 14.4972 27.9495 14.1972V14.0972V8.49722C27.9495 8.29722 27.9495 8.19722 27.9495 7.99722C27.9495 7.49722 27.8495 6.99724 27.4495 6.69724C26.8495 6.19724 25.9495 6.09723 25.2495 6.09723C23.7495 6.09723 22.0495 6.69724 20.9495 7.79724C20.4495 8.19724 19.9495 8.89723 19.9495 9.59723C19.9495 9.69723 19.9495 9.79725 20.0495 9.89725C20.1495 9.99725 20.2495 9.99722 20.3495 9.99722C20.6495 9.99722 21.1495 9.79724 21.4495 9.69724C21.8495 9.49724 22.0495 9.09724 22.1495 8.79724C22.6495 7.59724 23.3495 6.89725 24.7495 6.89725C26.1495 6.89725 26.1495 7.69725 26.1495 8.89725V9.89725C26.1495 10.7972 26.1495 10.6972 25.3495 11.0972L23.5495 11.8972C22.2495 12.4972 20.0495 13.4972 19.9495 15.2972C19.9495 16.5972 21.1495 17.2972 22.2495 17.2972C23.3495 17.2972 24.2495 16.7972 24.8495 16.3972C25.1495 16.1972 25.4495 15.8972 25.6495 15.7972C25.7495 15.6972 25.8495 15.5972 25.8495 15.5972H25.9495C26.1495 15.7972 26.3495 17.1972 27.5495 17.1972C28.2495 17.1972 28.8495 16.7972 29.2495 16.4972C29.4495 16.2972 29.8495 15.9972 29.8495 15.6972C30.0495 15.3972 29.9495 15.2972 29.7495 15.2972ZM23.7495 12.4972L25.8495 11.3972C25.9495 11.3972 26.0495 11.2972 26.0495 11.2972C26.0495 11.2972 26.0495 11.2972 26.0495 11.3972C26.0495 11.4972 26.0495 11.5972 26.0495 11.5972C26.0495 11.6972 26.0495 11.7972 26.0495 11.8972V13.2972C26.0495 14.0972 26.0495 14.3972 25.4495 14.9972C24.9495 15.4972 24.1495 15.8972 23.3495 15.8972C22.5495 15.8972 21.8495 15.4972 21.8495 14.5972C21.9495 13.5972 22.8495 12.9972 23.7495 12.4972Z" fill="#0067B1"/>
<path d="M40.1496 14.7972C39.9496 14.7972 39.7495 15.0972 39.7495 15.0972C39.0495 15.7972 38.1496 16.0972 37.1496 16.0972C34.5496 16.0972 32.8495 13.6972 32.8495 11.3972C32.8495 9.99725 33.4495 8.59724 34.5495 7.69724C35.1495 7.19724 36.0495 6.79724 36.8495 6.79724C37.7495 6.79724 38.2495 7.39722 38.7495 7.99722C39.1495 8.59722 39.4495 9.29724 39.9495 9.29724C40.3495 9.29724 40.3495 8.79722 40.3495 8.49722C40.3495 8.29722 40.3495 8.09722 40.3495 7.99722C40.3495 7.89722 40.3495 7.69722 40.3495 7.49722C40.3495 7.29722 40.3495 6.99725 40.0495 6.89725C39.2495 6.39725 38.0495 6.09723 37.0495 6.09723C33.8495 6.09723 30.8495 8.59725 30.8495 11.8972C30.8495 14.7972 33.2495 17.2972 36.2495 17.2972C37.5495 17.2972 38.7495 16.8972 39.7495 16.0972C39.9495 15.8972 40.4495 15.4972 40.4495 15.1972C40.4495 14.9972 40.3496 14.7972 40.1496 14.7972Z" fill="#0067B1"/>
<path d="M55.1496 16.1973C54.1496 16.1973 53.7495 14.8973 53.3495 13.9973L48.5495 2.19727C48.4495 2.09727 48.4496 1.69727 48.1496 1.69727C47.7496 1.69727 47.7496 2.09727 47.6496 2.29727L43.1496 14.0973C42.9496 14.4973 42.5495 15.5973 42.2495 15.8973C41.9495 16.1973 41.5496 16.1973 41.1496 16.1973C40.9496 16.1973 40.4495 16.1973 40.3495 16.5973C40.3495 16.8973 40.6495 16.9973 40.8495 16.9973C41.0495 16.9973 41.1495 16.9973 41.2495 16.9973C41.9495 16.9973 42.5495 16.8973 43.2495 16.8973C43.8495 16.8973 44.5495 16.9973 45.2495 16.9973C45.3495 16.9973 45.5496 16.9973 45.6496 16.9973C45.7496 16.9973 45.9495 16.7973 45.9495 16.5973C45.9495 16.1973 45.5495 16.1973 45.3495 16.1973H45.2495C44.9495 16.1973 44.6495 16.1973 44.2495 16.0973C43.9495 15.9973 43.7495 15.7973 43.7495 15.4973C43.7495 15.0973 43.9495 14.5973 44.0495 14.1973L44.7495 12.3973C45.1495 11.4973 44.8495 11.5973 45.7495 11.4973H48.9495C49.5495 11.4973 49.7495 11.4973 49.8495 11.5973C49.9495 11.6973 50.0495 11.9973 50.3495 12.5973L51.1496 14.3973C51.2496 14.6973 51.4495 15.1973 51.4495 15.4973C51.4495 15.7973 51.2495 15.8973 51.0495 15.9973C50.7495 16.0973 50.4495 16.0973 50.0495 16.0973C49.8495 16.0973 49.2495 16.0973 49.2495 16.5973C49.2495 16.8973 49.6495 16.8973 49.7495 16.8973C50.6495 16.8973 51.5495 16.7973 52.3495 16.7973C53.3495 16.7973 54.4495 16.8973 55.4495 16.8973C55.5495 16.8973 55.9495 16.8973 55.9495 16.5973C55.9495 16.1973 55.3496 16.1973 55.1496 16.1973ZM47.4495 5.49725C47.5495 5.59725 47.6495 5.99726 47.7495 6.09726L49.3495 10.0973C49.3495 10.1973 49.5495 10.4973 49.5495 10.5973C49.5495 10.5973 49.5495 10.5973 49.4495 10.6973C49.3495 10.6973 49.2496 10.6973 49.1496 10.6973C49.0496 10.6973 48.9495 10.6973 48.8495 10.6973H46.1496C46.0496 10.6973 45.9495 10.6973 45.7495 10.6973C45.6495 10.6973 45.5495 10.6973 45.4495 10.6973H45.3495C45.3495 10.6973 45.3495 10.4973 45.4495 10.4973L47.0495 6.19727C47.0495 6.09727 47.1496 5.99727 47.1496 5.79727C47.3496 5.69727 47.4495 5.59725 47.4495 5.49725Z" fill="#0067B1"/>
<path d="M63.3495 6.19724C62.4495 6.19724 61.8495 6.69724 61.3495 7.19724C61.1495 7.39724 60.9496 7.69726 60.7496 7.89726C60.6496 7.99726 60.6496 8.09724 60.5496 8.09724C60.5496 8.09724 60.5496 7.99726 60.5496 7.89726C60.5496 7.79726 60.5496 7.79724 60.5496 7.69724V6.49723V6.39726C60.5496 6.29726 60.5496 6.19724 60.5496 6.09724C60.5496 5.99724 60.3496 5.89723 60.2496 5.99723C59.9496 5.99723 59.8496 6.19725 59.7496 6.29725C59.3496 6.69725 58.3495 7.29723 57.8495 7.49723C57.6495 7.59723 57.2496 7.59723 57.2496 7.99723C57.2496 8.19723 57.4496 8.29725 57.6496 8.29725H57.9496C58.1496 8.29725 58.4496 8.29725 58.5496 8.39725C58.7496 8.49725 58.7496 9.19724 58.7496 9.59724C58.7496 9.69724 58.7496 9.69725 58.7496 9.79725V14.1972C58.7496 14.4972 58.7496 14.6973 58.7496 14.8973C58.7496 15.5973 58.6496 15.8972 57.7496 15.9972C57.6496 15.9972 57.4496 15.9972 57.3496 15.9972C57.1496 15.9972 57.0496 16.1973 57.0496 16.3973C57.0496 16.6973 57.3496 16.6972 57.4496 16.6972C58.1496 16.6972 58.9496 16.5972 59.6496 16.5972C60.3496 16.5972 61.1495 16.6972 61.8495 16.6972C61.9495 16.6972 62.0496 16.6972 62.1496 16.5972C62.2496 16.4972 62.2496 16.3972 62.2496 16.2972C62.2496 15.7972 61.6496 15.8973 61.4496 15.8973C60.5496 15.7973 60.4496 15.3972 60.4496 14.7972C60.4496 14.5972 60.4496 14.2972 60.4496 14.0972V10.3973C60.4496 10.2973 60.4496 10.2972 60.4496 10.1972C60.4496 9.39724 60.4496 8.79724 60.9496 8.09724C61.2496 7.69724 61.6496 7.29725 62.0496 7.29725C62.5496 7.19725 62.6496 8.19724 63.5496 8.19724C64.1496 8.19724 64.6496 7.79724 64.6496 7.09724C64.7496 6.69724 64.0495 6.19724 63.3495 6.19724Z" fill="#0067B1"/>
<path d="M71.6495 15.2972C71.4495 15.2972 71.2495 15.4972 70.9495 15.6972C70.6495 15.8972 70.3495 16.0972 69.9495 16.0972C69.3495 16.0972 69.0495 15.6972 68.8495 15.1972C68.6495 14.6972 68.6495 13.9972 68.6495 13.4972V13.3972V7.39722C68.6495 6.99722 68.7495 6.99719 68.9495 6.99719C69.0495 6.99719 69.2495 6.99719 69.3495 6.99719H70.6495C70.8495 6.99719 70.9495 6.99719 71.0495 6.99719C71.1495 6.99719 71.2495 6.99722 71.3495 6.89722C71.4495 6.79722 71.4495 6.69719 71.4495 6.49719C71.4495 6.39719 71.4495 6.2972 71.4495 6.1972C71.4495 6.0972 71.2495 5.99719 71.1495 5.99719H68.8495C68.5495 5.99719 68.6495 5.8972 68.5495 5.5972V3.89722C68.5495 3.79722 68.5495 3.49719 68.2495 3.49719C68.0495 3.49719 67.9495 3.69721 67.9495 3.79721C67.4495 4.89721 66.7495 5.4972 65.7495 6.0972C65.6495 6.1972 65.4495 6.29719 65.4495 6.49719C65.4495 6.79719 65.7495 6.79721 65.9495 6.79721C66.0495 6.79721 66.2495 6.79721 66.2495 6.79721C66.3495 6.79721 66.4495 6.79721 66.5495 6.79721C66.7495 6.79721 66.7495 6.6972 66.7495 7.0972V13.0972C66.7495 13.2972 66.7495 13.5972 66.7495 13.7972C66.7495 14.5972 66.7495 15.4972 67.2495 16.0972C67.6495 16.5972 68.3495 16.8972 69.0495 16.8972C69.9495 16.8972 70.7495 16.4972 71.3495 15.9972C71.5495 15.8972 71.8495 15.5972 71.8495 15.2972C71.9495 15.3972 71.8495 15.2972 71.6495 15.2972Z" fill="#0067B1"/>
<path d="M84.5495 16.2972C83.6495 16.1972 83.6495 15.7972 83.5495 15.1972C83.5495 14.9972 83.5495 14.6972 83.5495 14.4972V10.7972C83.5495 10.6972 83.5495 10.6972 83.5495 10.5972C83.5495 9.49723 83.5495 8.29725 82.8495 7.39725C82.2495 6.49725 81.0495 6.19724 80.0495 6.19724C78.4495 6.19724 77.5495 6.69724 76.5495 7.69724L76.3495 7.79724C76.3495 7.79724 76.3495 7.79724 76.2495 7.69724V0.797241V0.697235C76.2495 0.597235 76.2495 0.497247 76.2495 0.397247C76.2495 0.297247 76.0495 0.297241 75.9495 0.297241C75.7495 0.297241 75.5495 0.497229 75.3495 0.597229C74.8495 0.997229 73.9495 1.19724 73.2495 1.29724C73.0495 1.29724 72.8495 1.39724 72.8495 1.69724C72.8495 1.99724 73.1495 2.09723 73.3495 2.09723C73.4495 2.09723 73.5495 2.09723 73.5495 2.09723C74.2495 2.09723 74.3495 2.49724 74.3495 3.19724C74.3495 3.39724 74.3495 3.69725 74.3495 3.89725V14.5972C74.3495 14.8972 74.3495 15.0972 74.3495 15.2972C74.3495 15.8972 74.2495 16.2972 73.3495 16.3972C73.2495 16.3972 73.0495 16.3972 72.9495 16.3972C72.7495 16.3972 72.6495 16.5972 72.6495 16.7972C72.6495 17.0972 72.9495 17.0972 73.0495 17.0972C73.7495 17.0972 74.5495 16.9972 75.2495 16.9972C75.9495 16.9972 76.7495 17.0972 77.4495 17.0972C77.5495 17.0972 77.6495 17.0972 77.7495 16.9972C77.8495 16.8972 77.8495 16.7972 77.8495 16.6972C77.8495 16.1972 77.2495 16.2972 77.0495 16.2972C76.1495 16.1972 76.1495 15.7972 76.0495 15.1972C76.0495 14.9972 76.0495 14.6972 76.0495 14.4972V10.1972C76.0495 9.19724 76.0495 8.79723 76.7495 8.09723C77.3495 7.49723 78.1495 7.09723 78.9495 7.09723C79.9495 7.09723 80.6495 7.49723 81.0495 8.09723C81.4495 8.69723 81.4495 9.59725 81.4495 10.3972V14.4972C81.4495 14.7972 81.4495 14.9972 81.4495 15.1972C81.4495 15.7972 81.3495 16.1972 80.4495 16.2972C80.3495 16.2972 80.1495 16.2972 80.0495 16.2972C79.8495 16.2972 79.7495 16.4972 79.7495 16.6972C79.7495 16.9972 80.0495 16.9972 80.1495 16.9972C80.8495 16.9972 81.6495 16.8972 82.3495 16.8972C83.0495 16.8972 83.7495 16.9972 84.5495 16.9972C84.6495 16.9972 84.7495 16.9972 84.8495 16.8972C84.9495 16.7972 84.9495 16.6972 84.9495 16.5972C85.2495 16.1972 84.7495 16.2972 84.5495 16.2972Z" fill="#0067B1"/>
<path d="M97.1496 15.3972H96.8495C96.7495 15.3972 96.7496 15.3972 96.6496 15.3972C96.0496 15.3972 96.0496 15.0972 95.9496 14.5972C95.9496 14.3972 95.9496 14.1972 95.9496 13.9972V7.09723C95.9496 6.99723 95.9496 6.89724 95.9496 6.79724C95.9496 6.69724 95.9495 6.59722 95.8495 6.49722C95.7495 6.39722 95.6496 6.39725 95.5496 6.39725H92.8495C92.7495 6.39725 92.7496 6.39725 92.6496 6.39725C92.5496 6.39725 92.5496 6.39722 92.4496 6.49722C92.3496 6.59722 92.3495 6.59724 92.3495 6.69724C92.3495 7.19724 92.9496 7.09723 93.1496 7.09723C94.0496 7.09723 94.0496 7.49723 94.0496 8.09723C94.0496 8.29723 94.0496 8.59725 94.0496 8.89725V13.3972C94.0496 13.5972 94.0496 13.7972 94.0496 13.8972C94.0496 14.2972 94.0496 14.6972 93.6496 14.9972C93.0496 15.6972 92.2496 15.9972 91.2496 15.9972C90.3496 15.9972 89.4496 15.6972 88.9496 14.9972C88.5496 14.3972 88.5496 13.1972 88.5496 12.3972V7.29724C88.5496 7.19724 88.5496 7.09725 88.5496 6.89725C88.5496 6.79725 88.5496 6.59722 88.4496 6.49722C88.3496 6.39722 88.2496 6.29724 88.0496 6.29724H85.5496C85.4496 6.29724 85.4495 6.29724 85.3495 6.29724C85.2495 6.29724 85.2496 6.29725 85.1496 6.39725C85.0496 6.49725 85.0496 6.49723 85.0496 6.59723C85.0496 7.09723 85.6496 6.99722 85.7496 6.99722C86.6496 6.99722 86.6496 7.39722 86.7496 7.99722C86.7496 8.19722 86.7496 8.49724 86.7496 8.79724V12.3972C86.7496 12.4972 86.7496 12.6972 86.7496 12.7972C86.7496 13.7972 86.7496 14.8972 87.4496 15.7972C88.1496 16.6972 89.1495 17.1972 90.3495 17.1972C91.4495 17.1972 92.2495 16.7972 92.8495 16.3972C93.4495 15.9972 93.8496 15.5972 93.9496 15.5972C93.9496 15.5972 93.9496 15.5972 94.0496 15.6972C94.0496 15.7972 94.0496 15.8972 94.0496 15.9972C94.0496 16.1972 94.0496 16.3972 94.0496 16.3972V16.9972C94.0496 17.0972 94.0496 17.0972 94.0496 17.1972C94.0496 17.2972 94.1496 17.2972 94.2496 17.2972C94.4496 17.2972 94.5496 17.1972 94.5496 17.0972C95.2496 16.5972 96.0495 16.2972 96.8495 16.0972C96.9495 15.9972 97.3496 15.9972 97.4496 15.6972C97.5496 15.4972 97.2496 15.3972 97.1496 15.3972Z" fill="#0067B1"/>
<path d="M104.95 6.19724C104.05 6.19724 103.45 6.69724 102.95 7.19724C102.75 7.39724 102.55 7.69726 102.35 7.89726C102.25 7.99726 102.25 8.09724 102.15 8.09724C102.15 8.09724 102.15 7.99726 102.15 7.89726C102.15 7.79726 102.15 7.79724 102.15 7.69724V6.49723V6.39726C102.15 6.29726 102.15 6.19724 102.15 6.09724C102.15 5.99724 101.95 5.89723 101.85 5.99723C101.55 5.99723 101.45 6.19725 101.35 6.29725C100.95 6.69725 99.9495 7.29723 99.4495 7.49723C99.2495 7.59723 98.8495 7.59723 98.8495 7.99723C98.8495 8.19723 99.0495 8.29725 99.2495 8.29725H99.5495C99.7495 8.29725 100.05 8.29725 100.15 8.39725C100.35 8.49725 100.35 9.19724 100.35 9.59724C100.35 9.69724 100.35 9.69725 100.35 9.79725V14.1972C100.35 14.4972 100.35 14.6973 100.35 14.8973C100.35 15.4973 100.25 15.8972 99.3495 15.9972C99.2495 15.9972 99.0495 15.9972 98.9495 15.9972C98.7495 15.9972 98.6495 16.1973 98.6495 16.3973C98.6495 16.6973 98.9495 16.6972 99.0495 16.6972C99.7495 16.6972 100.55 16.5972 101.25 16.5972C101.95 16.5972 102.75 16.6972 103.45 16.6972C103.55 16.6972 103.65 16.6972 103.75 16.5972C103.85 16.4972 103.85 16.3972 103.85 16.2972C103.85 15.7972 103.25 15.8973 103.05 15.8973C102.15 15.7973 102.05 15.3972 102.05 14.7972C102.05 14.5972 102.05 14.2972 102.05 14.0972V10.3973C102.05 10.2973 102.05 10.2972 102.05 10.1972C102.05 9.39724 102.05 8.79724 102.55 8.09724C102.85 7.69724 103.25 7.29725 103.65 7.29725C104.15 7.19725 104.25 8.19724 105.15 8.19724C105.75 8.19724 106.25 7.79724 106.25 7.09724C106.45 6.69724 105.75 6.19724 104.95 6.19724Z" fill="#0067B1"/>
<path d="M120.45 5.69727C120.75 5.69727 120.85 5.29726 120.85 5.09726C120.85 4.89726 120.85 4.79727 120.85 4.69727V3.09726C120.85 2.99726 120.85 2.89727 120.85 2.79727C120.85 2.69727 120.85 2.49728 120.75 2.39728C120.65 2.29728 120.55 2.19727 120.35 2.19727C117.75 2.19727 115.15 2.29727 112.65 2.29727C111.95 2.29727 111.25 2.19727 110.55 2.19727C110.35 2.19727 110.05 2.29726 110.05 2.59726C110.05 2.99726 110.55 2.99725 110.75 2.99725C112.15 2.99725 112.05 3.19727 112.15 4.29727C112.15 4.39727 112.15 4.59727 112.15 4.69727V14.3973C112.15 14.5973 112.15 14.7973 112.15 14.8973C112.15 15.9973 112.15 16.1973 110.75 16.1973H110.65C110.45 16.1973 110.05 16.1973 110.05 16.5973C110.05 16.7973 110.15 16.8973 110.25 16.8973C110.35 16.9973 110.45 16.9973 110.55 16.9973C111.45 16.9973 112.25 16.8973 113.15 16.8973C113.95 16.8973 114.85 16.9973 115.65 16.9973C115.75 16.9973 115.85 16.9973 115.95 16.8973C116.05 16.7973 116.15 16.6973 116.15 16.5973C116.15 16.1973 115.75 16.1973 115.55 16.1973H115.45C114.05 16.0973 114.15 15.9973 114.05 14.7973C114.05 14.6973 114.05 14.4973 114.05 14.3973V9.99725C114.05 9.59725 114.15 9.49728 114.25 9.39728C114.35 9.29728 114.65 9.29727 115.05 9.29727C115.75 9.29727 116.85 9.29725 117.75 9.49725C118.15 9.59725 118.35 10.1973 118.45 10.8973C118.45 10.9973 118.55 11.3973 118.85 11.3973C118.95 11.3973 119.05 11.3973 119.15 11.2973C119.25 11.1973 119.25 11.0973 119.25 10.8973C119.25 10.0973 119.15 9.39727 119.15 8.69727C119.15 8.09727 119.25 7.29727 119.25 6.69727C119.25 6.39727 119.05 6.29727 118.85 6.29727C118.55 6.29727 118.45 6.69727 118.45 6.79727C118.35 7.49727 118.15 8.29727 117.75 8.29727C117.15 8.39727 116.35 8.39728 115.75 8.39728C115.45 8.39728 115.25 8.39728 115.05 8.39728C114.15 8.39728 114.05 8.49728 114.05 7.39728V4.09726C114.05 3.99726 114.05 3.99728 114.05 3.89728C114.05 3.59728 114.05 3.19726 114.25 3.09726C114.55 2.99726 115.75 2.89728 116.15 2.89728C118.15 2.89728 119.45 2.89726 120.05 5.09726C120.05 5.19726 120.05 5.59727 120.45 5.69727Z" fill="#00853F"/>
<path d="M125.45 6.09723C123.95 6.09723 122.55 6.59724 121.55 7.69724C120.65 8.69724 120.05 10.0972 120.05 11.5972C120.05 14.8972 122.55 17.2972 125.45 17.2972C128.35 17.2972 130.85 14.8972 130.85 11.5972C130.85 10.0972 130.25 8.49722 129.15 7.49722C128.15 6.49722 126.75 6.09723 125.45 6.09723ZM125.45 6.79724C127.85 6.79724 129.05 9.39724 129.05 11.7972C129.05 13.9972 127.75 16.5972 125.55 16.5972C124.35 16.5972 123.45 15.8972 122.85 14.8972C122.25 13.8972 121.85 12.5972 121.85 11.4972C121.85 9.09722 123.15 6.79724 125.45 6.79724Z" fill="#00853F"/>
<path d="M142.75 15.3972H142.45C142.35 15.3972 142.35 15.3972 142.25 15.3972C141.65 15.3972 141.65 15.0972 141.65 14.5972C141.65 14.3972 141.65 14.1972 141.65 13.9972V7.09723C141.65 6.99723 141.65 6.89724 141.65 6.79724C141.65 6.69724 141.65 6.59722 141.55 6.49722C141.45 6.39722 141.35 6.39725 141.25 6.39725H138.65C138.65 6.39725 138.55 6.39725 138.45 6.39725C138.35 6.39725 138.35 6.39722 138.25 6.49722C138.15 6.59722 138.15 6.59724 138.15 6.69724C138.15 7.19724 138.75 7.09723 138.85 7.09723C139.65 7.09723 139.75 7.49723 139.75 8.09723C139.75 8.29723 139.75 8.59725 139.75 8.89725V13.3972C139.75 13.5972 139.75 13.7972 139.75 13.8972C139.75 14.2972 139.75 14.6972 139.35 14.9972C138.75 15.6972 137.95 15.9972 137.05 15.9972C136.25 15.9972 135.35 15.6972 134.85 14.9972C134.45 14.3972 134.45 13.1972 134.45 12.3972V7.29724C134.45 7.19724 134.45 7.09725 134.45 6.89725C134.45 6.79725 134.45 6.59722 134.35 6.49722C134.25 6.39722 134.15 6.29724 133.95 6.29724H131.45C131.35 6.29724 131.35 6.29724 131.25 6.29724C131.15 6.29724 131.15 6.29725 131.05 6.39725C130.95 6.49725 130.95 6.49723 130.95 6.59723C130.95 7.09723 131.45 6.99722 131.65 6.99722C132.55 6.99722 132.55 7.39722 132.55 7.99722C132.55 8.19722 132.55 8.49724 132.55 8.79724V12.3972C132.55 12.4972 132.55 12.6972 132.55 12.7972C132.55 13.7972 132.55 14.8972 133.25 15.7972C133.95 16.6972 134.85 17.1972 136.05 17.1972C137.15 17.1972 137.95 16.7972 138.45 16.3972C139.05 15.9972 139.45 15.5972 139.45 15.5972C139.45 15.5972 139.45 15.5972 139.55 15.6972C139.55 15.7972 139.55 15.8972 139.55 15.9972C139.55 16.1972 139.55 16.3972 139.55 16.3972V16.9972C139.55 17.0972 139.55 17.0972 139.55 17.1972C139.55 17.2972 139.65 17.2972 139.75 17.2972C139.95 17.2972 140.05 17.0972 140.05 17.0972C140.75 16.5972 141.55 16.2972 142.25 16.0972C142.35 15.9972 142.75 15.9972 142.85 15.6972C143.15 15.4972 142.85 15.3972 142.75 15.3972Z" fill="#00853F"/>
<path d="M156.05 16.2972C155.85 16.2972 155.75 16.2972 155.65 16.1972C154.75 16.0972 154.75 15.7972 154.75 15.0972C154.75 14.8972 154.75 14.5972 154.75 14.3972V10.6972C154.75 10.5972 154.75 10.3972 154.75 10.2972C154.75 9.29724 154.75 8.29725 154.05 7.39725C153.35 6.49725 152.45 6.09723 151.25 6.09723C150.15 6.09723 149.35 6.59723 148.75 7.09723C148.25 7.49723 147.85 7.79722 147.75 7.99722V6.59723V6.49722C147.75 6.39722 147.75 6.09723 147.45 6.09723C147.15 6.09723 147.05 6.29725 146.95 6.39725C146.65 6.79725 145.65 7.39723 145.15 7.59723C144.95 7.69723 144.55 7.69723 144.55 8.09723C144.55 8.29723 144.75 8.39725 144.95 8.39725H145.25C145.45 8.39725 145.75 8.39722 145.85 8.49722C146.05 8.59722 146.05 9.29724 146.05 9.69724C146.05 9.79724 146.05 9.79725 146.05 9.89725V14.2972C146.05 14.5972 146.05 14.7972 146.05 14.9972C146.05 15.6972 145.95 15.9972 145.15 16.0972C145.05 16.0972 144.85 16.0972 144.75 16.0972C144.55 16.0972 144.45 16.2972 144.45 16.4972C144.45 16.7972 144.75 16.8972 144.85 16.8972C145.55 16.8972 146.25 16.7972 146.95 16.7972C147.65 16.7972 148.35 16.8972 149.05 16.8972C149.15 16.8972 149.25 16.8972 149.35 16.7972C149.45 16.6972 149.45 16.5972 149.45 16.4972C149.45 16.2972 149.25 16.1972 149.15 16.0972C148.95 16.0972 148.85 16.0972 148.75 15.9972C147.85 15.8972 147.85 15.5972 147.85 14.8972C147.85 14.6972 147.85 14.3972 147.85 14.1972V10.1972C147.85 9.29724 147.95 8.79723 148.55 8.09723C149.15 7.49723 149.85 7.09723 150.75 7.09723C151.55 7.09723 152.35 7.49723 152.75 8.09723C153.15 8.69723 153.15 9.59725 153.15 10.3972V14.0972C153.15 14.3972 153.15 14.5972 153.15 14.7972C153.15 15.4972 153.05 15.7972 152.25 15.8972C152.15 15.8972 151.95 15.8972 151.85 15.8972C151.65 15.8972 151.55 16.0972 151.55 16.2972C151.55 16.5972 151.85 16.6972 151.95 16.6972C152.65 16.6972 153.35 16.5972 154.05 16.5972C154.75 16.5972 155.45 16.6972 156.15 16.6972C156.25 16.6972 156.35 16.6972 156.45 16.5972C156.55 16.4972 156.55 16.3972 156.55 16.2972C156.35 16.4972 156.15 16.2972 156.05 16.2972Z" fill="#00853F"/>
<path d="M168.45 14.8973C168.25 14.8973 168.15 15.0972 167.95 15.2972C167.75 15.4972 167.55 15.6972 167.45 15.6972C167.35 15.6972 167.35 15.6972 167.25 15.4972C167.25 15.3972 167.15 15.1972 167.15 14.9972C167.15 14.7972 167.15 14.6972 167.15 14.5972V0.697243V0.597237C167.15 0.497237 167.15 0.397249 167.15 0.297249C167.15 0.197249 166.95 0.0972428 166.85 0.197243C166.65 0.197243 166.45 0.397231 166.35 0.497231C165.85 0.897231 164.95 1.09724 164.35 1.19724C164.25 1.19724 163.95 1.29724 163.95 1.59724C163.95 1.89724 164.25 1.99723 164.45 1.99723C164.55 1.99723 164.65 1.99723 164.65 1.99723C165.35 1.99723 165.45 2.39724 165.45 3.09724C165.45 3.29724 165.45 3.59725 165.45 3.79725V5.99723C165.45 6.09723 165.45 6.19725 165.45 6.39725C165.45 6.49725 165.45 6.59724 165.45 6.69724C165.45 6.79724 165.45 6.79725 165.45 6.79725C165.35 6.79725 165.15 6.69724 165.05 6.69724C164.25 6.39724 163.45 6.19724 162.55 6.19724C162.45 6.19724 162.45 6.19724 162.35 6.19724C160.95 6.19724 159.55 6.89725 158.55 7.89725C157.55 8.89725 156.95 10.2972 156.95 11.7972C156.95 14.6972 159.05 17.3973 161.95 17.3973C162.95 17.3973 163.75 16.9972 164.35 16.5972C164.95 16.1972 165.45 15.7972 165.45 15.7972C165.55 15.8972 165.55 16.2973 165.55 16.3973C165.55 16.4973 165.55 16.5972 165.55 16.7972C165.55 16.9972 165.65 17.1972 165.85 17.1972C166.05 17.1972 166.25 16.9972 166.35 16.9972L168.15 16.2972C168.35 16.1972 168.65 16.0972 168.65 15.7972V15.4972V15.3973C168.65 15.0973 168.65 14.8973 168.45 14.8973ZM162.55 15.9972C160.15 15.9972 158.75 13.5972 158.75 11.2972C158.75 8.99725 160.15 6.89724 162.55 6.69724C162.65 6.69724 162.65 6.69724 162.75 6.69724C163.45 6.69724 164.35 6.99725 164.75 7.39725C165.25 7.89725 165.25 8.49724 165.25 9.19724C165.25 9.29724 165.25 9.39723 165.25 9.49723V13.7972C165.25 13.9972 165.25 14.0972 165.25 14.1972C165.25 14.4972 165.25 14.6973 165.05 14.8973C164.55 15.6973 163.55 15.9972 162.55 15.9972Z" fill="#00853F"/>
<path d="M179.25 15.2972C179.05 15.2972 178.95 15.4972 178.75 15.5972C178.65 15.6972 178.45 15.8972 178.15 15.8972C177.85 15.8972 177.649 15.6972 177.549 15.2972C177.449 14.8972 177.449 14.4972 177.449 14.1972V14.0972V8.49722C177.449 8.29722 177.449 8.19722 177.449 7.99722C177.449 7.49722 177.349 7.09724 176.949 6.69724C176.349 6.19724 175.549 6.09723 174.849 6.09723C173.349 6.09723 171.85 6.69724 170.75 7.79724C170.35 8.19724 169.75 8.89723 169.75 9.59723C169.75 9.69723 169.749 9.79725 169.849 9.89725C169.949 9.99725 170.05 9.99722 170.15 9.99722C170.45 9.99722 170.95 9.79724 171.15 9.69724C171.55 9.49724 171.649 9.09724 171.849 8.79724C172.349 7.59724 173.049 6.89725 174.349 6.89725C175.649 6.89725 175.65 7.69725 175.65 8.89725V9.89725C175.65 10.7972 175.649 10.6972 174.849 11.0972L173.15 11.9972C171.95 12.5972 169.75 13.5972 169.75 15.3972C169.75 16.6972 170.849 17.3972 171.949 17.3972C172.949 17.3972 173.849 16.8972 174.449 16.4972C174.749 16.2972 175.05 15.9972 175.25 15.8972C175.35 15.7972 175.449 15.6972 175.449 15.6972C175.449 15.6972 175.549 15.6972 175.549 15.5972C175.749 15.7972 175.949 17.1972 177.049 17.1972C177.649 17.1972 178.25 16.7972 178.75 16.4972C178.95 16.2972 179.349 15.9972 179.349 15.6972C179.549 15.3972 179.45 15.2972 179.25 15.2972ZM175.849 11.6972C175.849 11.7972 175.849 11.8972 175.849 11.9972V13.3972C175.849 14.1972 175.849 14.4972 175.349 15.0972C174.849 15.5972 174.049 15.9972 173.349 15.9972C172.549 15.9972 171.949 15.5972 171.949 14.6972C171.949 13.5972 172.75 13.0972 173.65 12.5972L175.75 11.4972C175.85 11.4972 175.949 11.3972 175.949 11.3972C175.949 11.3972 175.949 11.3972 175.949 11.4972C175.849 11.4972 175.849 11.5972 175.849 11.6972Z" fill="#00853F"/>
<path d="M185.85 15.2972C185.65 15.2972 185.55 15.4972 185.25 15.6972C184.95 15.8972 184.65 16.0972 184.25 16.0972C183.65 16.0972 183.35 15.6972 183.15 15.1972C182.95 14.6972 182.95 13.9972 182.95 13.4972V13.3972V7.39722C182.95 6.99722 183.05 6.99719 183.25 6.99719C183.35 6.99719 183.45 6.99719 183.65 6.99719H184.95C185.15 6.99719 185.25 6.99719 185.35 6.99719C185.45 6.99719 185.55 6.99722 185.65 6.89722C185.75 6.79722 185.75 6.69719 185.75 6.49719C185.75 6.39719 185.75 6.2972 185.75 6.1972C185.75 6.0972 185.55 5.99719 185.45 5.99719H183.25C182.95 5.99719 183.05 5.9972 183.05 5.5972V3.89722C183.05 3.79722 183.05 3.49719 182.75 3.49719C182.55 3.49719 182.45 3.69721 182.45 3.79721C181.95 4.89721 181.35 5.4972 180.35 6.0972C180.25 6.1972 180.05 6.2972 180.05 6.5972C180.05 6.8972 180.35 6.89722 180.55 6.89722C180.65 6.89722 180.85 6.89722 180.85 6.89722C180.95 6.89722 181.05 6.89722 181.05 6.89722C181.25 6.89722 181.25 6.7972 181.25 7.1972V13.1972C181.25 13.3972 181.25 13.6972 181.25 13.8972C181.25 14.6972 181.35 15.5972 181.75 16.1972C182.15 16.6972 182.85 16.9972 183.45 16.9972C184.25 16.9972 185.05 16.5972 185.65 16.0972C185.85 15.9972 186.15 15.6972 186.15 15.3972C186.15 15.3972 186.05 15.2972 185.85 15.2972Z" fill="#00853F"/>
<path d="M189.45 4.29724C190.15 4.29724 190.55 3.69722 190.55 2.99722C190.55 2.39722 190.15 1.79724 189.45 1.79724C188.75 1.79724 188.35 2.39723 188.35 3.09723C188.35 3.69723 188.75 4.29724 189.45 4.29724Z" fill="#00853F"/>
<path d="M191.65 16.2972C191.55 16.2972 191.35 16.2972 191.25 16.1972C190.35 16.0972 190.35 15.7972 190.35 15.0972C190.35 14.8972 190.35 14.5972 190.35 14.3972V6.49719V6.39722C190.35 6.29722 190.35 5.99719 190.05 5.99719C189.75 5.99719 189.65 6.19721 189.55 6.29721C189.25 6.69721 188.25 7.29719 187.75 7.49719C187.55 7.59719 187.15 7.59719 187.15 7.99719C187.15 8.19719 187.35 8.29721 187.55 8.29721H187.85C188.05 8.29721 188.35 8.29722 188.45 8.39722C188.65 8.49722 188.65 9.2972 188.65 9.6972C188.65 9.7972 188.65 9.79722 188.65 9.89722V14.2972C188.65 14.5972 188.65 14.7972 188.65 14.9972C188.65 15.6972 188.55 15.9972 187.75 16.0972C187.65 16.0972 187.45 16.0972 187.35 16.0972C187.25 16.0972 187.05 16.2972 187.05 16.4972C187.05 16.7972 187.35 16.8972 187.45 16.8972C188.15 16.8972 188.85 16.7972 189.65 16.7972C190.35 16.7972 191.05 16.8972 191.75 16.8972C191.85 16.8972 191.95 16.8972 192.05 16.7972C192.15 16.6972 192.15 16.5972 192.15 16.4972C192.05 16.4972 191.85 16.2972 191.65 16.2972Z" fill="#00853F"/>
<path d="M198.05 6.09723C196.55 6.09723 195.15 6.59724 194.15 7.69724C193.25 8.69724 192.65 10.0972 192.65 11.5972C192.65 14.8972 195.15 17.2972 198.05 17.2972C200.95 17.2972 203.45 14.8972 203.45 11.5972C203.45 10.0972 202.85 8.49722 201.75 7.49722C200.65 6.49722 199.35 6.09723 198.05 6.09723ZM201.55 11.6972C201.55 13.8972 200.25 16.4972 198.05 16.4972C196.85 16.4972 195.95 15.7972 195.35 14.7972C194.75 13.7972 194.35 12.4972 194.35 11.3972C194.35 8.99725 195.65 6.69724 197.95 6.69724C200.35 6.79724 201.55 9.39724 201.55 11.6972Z" fill="#00853F"/>
<path d="M215.95 16.2972C215.85 16.2972 215.65 16.2972 215.55 16.1972C214.65 16.0972 214.65 15.7972 214.65 15.0972C214.65 14.8972 214.65 14.5972 214.65 14.3972V10.6972C214.65 10.5972 214.65 10.3972 214.65 10.2972C214.65 9.29724 214.65 8.29725 213.95 7.39725C213.25 6.49725 212.35 6.09723 211.15 6.09723C210.05 6.09723 209.25 6.59723 208.65 7.09723C208.15 7.49723 207.75 7.79722 207.65 7.99722V6.59723V6.49722C207.65 6.39722 207.65 6.09723 207.35 6.09723C207.05 6.09723 206.95 6.29725 206.85 6.39725C206.55 6.79725 205.55 7.39723 205.05 7.59723C204.85 7.69723 204.45 7.69723 204.45 8.09723C204.45 8.29723 204.65 8.39725 204.85 8.39725H205.15C205.35 8.39725 205.65 8.39722 205.75 8.49722C205.95 8.59722 205.95 9.29724 205.95 9.69724C205.95 9.79724 205.95 9.79725 205.95 9.89725V14.2972C205.95 14.5972 205.95 14.7972 205.95 14.9972C205.95 15.6972 205.85 15.9972 205.05 16.0972C204.95 16.0972 204.75 16.0972 204.65 16.0972C204.45 16.0972 204.35 16.2972 204.35 16.4972C204.35 16.7972 204.65 16.8972 204.75 16.8972C205.45 16.8972 206.15 16.7972 206.85 16.7972C207.55 16.7972 208.25 16.8972 208.95 16.8972C209.05 16.8972 209.15 16.8972 209.25 16.7972C209.35 16.6972 209.35 16.5972 209.35 16.4972C209.35 16.2972 209.15 16.1972 209.05 16.0972C208.95 16.0972 208.75 16.0972 208.65 15.9972C207.75 15.8972 207.75 15.5972 207.75 14.8972C207.75 14.6972 207.75 14.3972 207.75 14.1972V10.1972C207.75 9.29724 207.85 8.79723 208.45 8.09723C209.05 7.49723 209.75 7.09723 210.65 7.09723C211.55 7.09723 212.25 7.49723 212.65 8.09723C213.05 8.69723 213.05 9.59725 213.05 10.3972V14.0972C213.05 14.3972 213.05 14.5972 213.05 14.7972C213.05 15.4972 212.95 15.7972 212.15 15.8972C212.05 15.8972 211.85 15.8972 211.75 15.8972C211.65 15.8972 211.45 16.0972 211.45 16.2972C211.45 16.5972 211.75 16.6972 211.85 16.6972C212.55 16.6972 213.25 16.5972 213.95 16.5972C214.65 16.5972 215.35 16.6972 216.05 16.6972C216.15 16.6972 216.25 16.6972 216.35 16.5972C216.45 16.4972 216.45 16.3972 216.45 16.2972C216.25 16.4972 216.05 16.2972 215.95 16.2972Z" fill="#00853F"/>
</svg>
