<svg width="49" height="48" viewBox="0 0 49 48" fill="none" xmlns="http://www.w3.org/2000/svg">
<rect x="0.666626" width="48" height="48" rx="6" fill="black"/>
<path fill-rule="evenodd" clip-rule="evenodd" d="M24.6666 17C22.4575 17 20.6666 18.7909 20.6666 21C20.6666 23.2091 22.4575 25 24.6666 25C26.8758 25 28.6666 23.2091 28.6666 21C28.6666 18.7909 26.8758 17 24.6666 17ZM22.6666 21C22.6666 19.8954 23.5621 19 24.6666 19C25.7712 19 26.6666 19.8954 26.6666 21C26.6666 22.1046 25.7712 23 24.6666 23C23.5621 23 22.6666 22.1046 22.6666 21Z" fill="white"/>
<path fill-rule="evenodd" clip-rule="evenodd" d="M24.6666 34C23.5297 34 21.8905 33.7313 20.6465 33.1596C20.0362 32.8792 19.3815 32.4632 18.9952 31.8409C18.7913 31.5124 18.6625 31.1251 18.6667 30.6941C18.6709 30.2672 18.8048 29.8623 19.024 29.4913C20.0265 27.7947 22.1062 26 24.6666 26C27.2271 26 29.3068 27.7947 30.3092 29.4913C30.5285 29.8623 30.6624 30.2672 30.6665 30.6941C30.6707 31.1251 30.5419 31.5124 30.338 31.8409C29.9518 32.4632 29.297 32.8792 28.6868 33.1596C27.4428 33.7313 25.8035 34 24.6666 34ZM20.7459 30.5087C20.6693 30.6383 20.6667 30.7027 20.6666 30.7136C20.6665 30.7209 20.6663 30.7407 20.6946 30.7862C20.7739 30.9142 21.0045 31.1231 21.4816 31.3423C22.4122 31.77 23.7555 32 24.6666 32C25.5778 32 26.921 31.77 27.8517 31.3423C28.3287 31.1231 28.5593 30.9142 28.6387 30.7862C28.667 30.7407 28.6667 30.7214 28.6666 30.7141C28.6665 30.7032 28.664 30.6383 28.5874 30.5087C27.8102 29.1934 26.2901 28 24.6666 28C23.0431 28 21.5231 29.1934 20.7459 30.5087Z" fill="white"/>
<path fill-rule="evenodd" clip-rule="evenodd" d="M15.1666 24C15.1666 22.3431 16.5098 21 18.1666 21C19.8235 21 21.1666 22.3431 21.1666 24C21.1666 25.6569 19.8235 27 18.1666 27C16.5098 27 15.1666 25.6569 15.1666 24ZM18.1666 23C17.6143 23 17.1666 23.4477 17.1666 24C17.1666 24.5523 17.6143 25 18.1666 25C18.7189 25 19.1666 24.5523 19.1666 24C19.1666 23.4477 18.7189 23 18.1666 23Z" fill="white"/>
<path d="M15.5624 31.4446C15.3168 31.9393 14.7167 32.1413 14.222 31.8957C13.7273 31.6502 13.5254 31.0501 13.7709 30.5554C14.1383 29.8152 14.6944 29.0721 15.3939 28.5034C16.0937 27.9346 16.9904 27.5 18.0138 27.5C18.5661 27.5 19.0138 27.9477 19.0138 28.5C19.0138 29.0523 18.5661 29.5 18.0138 29.5C17.5728 29.5 17.1074 29.688 16.6554 30.0554C16.2032 30.423 15.8179 30.9298 15.5624 31.4446Z" fill="white"/>
<path fill-rule="evenodd" clip-rule="evenodd" d="M28.4767 24C28.4767 22.3431 29.8198 21 31.4767 21C33.1335 21 34.4767 22.3431 34.4767 24C34.4767 25.6569 33.1335 27 31.4767 27C29.8198 27 28.4767 25.6569 28.4767 24ZM31.4767 23C30.9244 23 30.4767 23.4477 30.4767 24C30.4767 24.5523 30.9244 25 31.4767 25C32.029 25 32.4767 24.5523 32.4767 24C32.4767 23.4477 32.029 23 31.4767 23Z" fill="white"/>
<path d="M35.5668 30.5554C35.8123 31.0501 35.6103 31.6502 35.1156 31.8957C34.6209 32.1413 34.0208 31.9393 33.7753 31.4446C33.5198 30.9298 33.1345 30.423 32.6822 30.0554C32.2303 29.688 31.7648 29.5 31.3239 29.5C30.7716 29.5 30.3239 29.0523 30.3239 28.5C30.3239 27.9477 30.7716 27.5 31.3239 27.5C32.3473 27.5 33.244 27.9346 33.9438 28.5034C34.6433 29.0721 35.1994 29.8152 35.5668 30.5554Z" fill="white"/>
</svg>
