<svg width="49" height="48" viewBox="0 0 49 48" fill="none" xmlns="http://www.w3.org/2000/svg">
<rect x="0.333344" width="48" height="48" rx="6" fill="black"/>
<path fill-rule="evenodd" clip-rule="evenodd" d="M20.3571 14.4586C19.7088 12.5138 16.9579 12.5138 16.3096 14.4586C16.0708 15.1752 15.5085 15.7374 14.792 15.9763C12.8471 16.6245 12.8471 19.3755 14.792 20.0237C15.5085 20.2626 16.0708 20.8248 16.3096 21.5414C16.9579 23.4862 19.7088 23.4862 20.3571 21.5414C20.5959 20.8248 21.1582 20.2626 21.8747 20.0237C23.8196 19.3755 23.8196 16.6245 21.8747 15.9763C21.1582 15.7374 20.5959 15.1752 20.3571 14.4586ZM18.207 15.0911C18.2231 15.0428 18.2419 15.0285 18.2516 15.0219C18.2675 15.0111 18.2958 15 18.3333 15C18.3709 15 18.3992 15.0111 18.4151 15.0219C18.4248 15.0285 18.4436 15.0428 18.4597 15.0911C18.8976 16.4048 19.9285 17.4357 21.2423 17.8736C21.2906 17.8897 21.3049 17.9085 21.3115 17.9183C21.3223 17.9342 21.3333 17.9624 21.3333 18C21.3333 18.0376 21.3223 18.0658 21.3115 18.0817C21.3049 18.0915 21.2906 18.1103 21.2423 18.1264C19.9285 18.5643 18.8976 19.5952 18.4597 20.9089C18.4436 20.9572 18.4248 20.9715 18.4151 20.9781C18.3992 20.9889 18.3709 21 18.3333 21C18.2958 21 18.2675 20.9889 18.2516 20.9781C18.2419 20.9715 18.2231 20.9572 18.207 20.9089C17.7691 19.5952 16.7382 18.5643 15.4244 18.1264C15.3761 18.1103 15.3618 18.0915 15.3552 18.0817C15.3444 18.0658 15.3333 18.0376 15.3333 18C15.3333 17.9624 15.3444 17.9342 15.3552 17.9183C15.3618 17.9085 15.3761 17.8897 15.4244 17.8736C16.7382 17.4357 17.7691 16.4048 18.207 15.0911Z" fill="white"/>
<path fill-rule="evenodd" clip-rule="evenodd" d="M30.1634 21.0398C29.2568 18.3201 25.4099 18.3201 24.5033 21.0398C24.0107 22.5177 22.851 23.6774 21.3731 24.17C18.6534 25.0765 18.6534 28.9235 21.3731 29.83C22.851 30.3227 24.0107 31.4823 24.5033 32.9602C25.4099 35.6799 29.2568 35.6799 30.1634 32.9602C30.656 31.4823 31.8157 30.3227 33.2936 29.83C36.0133 28.9235 36.0133 25.0765 33.2936 24.17C31.8157 23.6774 30.656 22.5177 30.1634 21.0398ZM26.4007 21.6722C26.6995 20.7759 27.9672 20.7759 28.266 21.6722C28.9577 23.7473 30.586 25.3756 32.6611 26.0673C33.5574 26.3661 33.5574 27.6339 32.6611 27.9327C30.586 28.6244 28.9577 30.2527 28.266 32.3278C27.9672 33.2241 26.6995 33.2241 26.4007 32.3278C25.709 30.2527 24.0807 28.6244 22.0056 27.9327C21.1093 27.6339 21.1093 26.3661 22.0056 26.0673C24.0807 25.3756 25.709 23.7473 26.4007 21.6722Z" fill="white"/>
</svg>
